<mxfile host="Electron" agent="Mozilla/5.0 (Windows NT 10.0; Win64; x64) AppleWebKit/537.36 (KHTML, like Gecko) draw.io/26.0.9 Chrome/128.0.6613.186 Electron/32.2.5 Safari/537.36" version="26.0.9">
  <diagram id="R2lEEEUBdFMjLlhIrx00" name="Page-1">
    <mxGraphModel dx="2934" dy="1837" grid="1" gridSize="10" guides="1" tooltips="1" connect="1" arrows="1" fold="1" page="1" pageScale="1" pageWidth="850" pageHeight="1100" math="0" shadow="0" extFonts="Permanent Marker^https://fonts.googleapis.com/css?family=Permanent+Marker">
      <root>
        <mxCell id="0" />
        <mxCell id="1" parent="0" />
        <mxCell id="C-vyLk0tnHw3VtMMgP7b-12" value="" style="edgeStyle=entityRelationEdgeStyle;endArrow=ERzeroToMany;startArrow=ERone;endFill=1;startFill=0;" parent="1" edge="1">
          <mxGeometry width="100" height="100" relative="1" as="geometry">
            <mxPoint x="771" y="172" as="sourcePoint" />
            <mxPoint x="771" y="478" as="targetPoint" />
          </mxGeometry>
        </mxCell>
        <mxCell id="BF1OgcIJ15lhp7sfsIDX-50" value="Candidate " style="whiteSpace=wrap;html=1;align=center;" parent="1" vertex="1">
          <mxGeometry x="-520" y="-610" width="98" height="40" as="geometry" />
        </mxCell>
        <mxCell id="BF1OgcIJ15lhp7sfsIDX-51" value="id" style="ellipse;whiteSpace=wrap;html=1;align=center;fontStyle=4;" parent="1" vertex="1">
          <mxGeometry x="-593" y="-730" width="98" height="40" as="geometry" />
        </mxCell>
        <mxCell id="BF1OgcIJ15lhp7sfsIDX-53" value="" style="endArrow=none;html=1;rounded=0;exitX=0;exitY=0;exitDx=0;exitDy=0;entryX=0.5;entryY=1;entryDx=0;entryDy=0;" parent="1" source="BF1OgcIJ15lhp7sfsIDX-50" target="BF1OgcIJ15lhp7sfsIDX-51" edge="1">
          <mxGeometry relative="1" as="geometry">
            <mxPoint x="-150" y="-570" as="sourcePoint" />
            <mxPoint x="10" y="-570" as="targetPoint" />
            <Array as="points" />
          </mxGeometry>
        </mxCell>
        <mxCell id="BF1OgcIJ15lhp7sfsIDX-54" value="name" style="ellipse;whiteSpace=wrap;html=1;align=center;" parent="1" vertex="1">
          <mxGeometry x="-685" y="-668" width="98" height="40" as="geometry" />
        </mxCell>
        <mxCell id="BF1OgcIJ15lhp7sfsIDX-55" value="" style="endArrow=none;html=1;rounded=0;exitX=1;exitY=1;exitDx=0;exitDy=0;entryX=0;entryY=0.5;entryDx=0;entryDy=0;" parent="1" source="BF1OgcIJ15lhp7sfsIDX-54" target="BF1OgcIJ15lhp7sfsIDX-50" edge="1">
          <mxGeometry relative="1" as="geometry">
            <mxPoint x="-450" y="-570" as="sourcePoint" />
            <mxPoint x="-290" y="-570" as="targetPoint" />
          </mxGeometry>
        </mxCell>
        <mxCell id="BF1OgcIJ15lhp7sfsIDX-56" value="email" style="ellipse;whiteSpace=wrap;html=1;align=center;" parent="1" vertex="1">
          <mxGeometry x="-750" y="-610" width="98" height="40" as="geometry" />
        </mxCell>
        <mxCell id="BF1OgcIJ15lhp7sfsIDX-57" value="" style="endArrow=none;html=1;rounded=0;exitX=1;exitY=0.5;exitDx=0;exitDy=0;entryX=0;entryY=1;entryDx=0;entryDy=0;" parent="1" source="BF1OgcIJ15lhp7sfsIDX-56" target="BF1OgcIJ15lhp7sfsIDX-50" edge="1">
          <mxGeometry relative="1" as="geometry">
            <mxPoint x="-495" y="-510" as="sourcePoint" />
            <mxPoint x="-565" y="-550" as="targetPoint" />
          </mxGeometry>
        </mxCell>
        <mxCell id="BF1OgcIJ15lhp7sfsIDX-58" value="phone" style="ellipse;whiteSpace=wrap;html=1;align=center;" parent="1" vertex="1">
          <mxGeometry x="-671" y="-537" width="98" height="40" as="geometry" />
        </mxCell>
        <mxCell id="BF1OgcIJ15lhp7sfsIDX-59" value="" style="endArrow=none;html=1;rounded=0;exitX=1;exitY=0;exitDx=0;exitDy=0;entryX=0.25;entryY=1;entryDx=0;entryDy=0;" parent="1" source="BF1OgcIJ15lhp7sfsIDX-58" target="BF1OgcIJ15lhp7sfsIDX-50" edge="1">
          <mxGeometry relative="1" as="geometry">
            <mxPoint x="-441" y="-445" as="sourcePoint" />
            <mxPoint x="-466" y="-525" as="targetPoint" />
          </mxGeometry>
        </mxCell>
        <mxCell id="BF1OgcIJ15lhp7sfsIDX-60" value="Application " style="whiteSpace=wrap;html=1;align=center;" parent="1" vertex="1">
          <mxGeometry x="-250" y="-461" width="98" height="40" as="geometry" />
        </mxCell>
        <mxCell id="BF1OgcIJ15lhp7sfsIDX-66" value="" style="edgeStyle=orthogonalEdgeStyle;rounded=0;orthogonalLoop=1;jettySize=auto;html=1;" parent="1" source="BF1OgcIJ15lhp7sfsIDX-65" target="BF1OgcIJ15lhp7sfsIDX-60" edge="1">
          <mxGeometry relative="1" as="geometry" />
        </mxCell>
        <mxCell id="BF1OgcIJ15lhp7sfsIDX-67" value="" style="edgeStyle=orthogonalEdgeStyle;rounded=0;orthogonalLoop=1;jettySize=auto;html=1;" parent="1" source="BF1OgcIJ15lhp7sfsIDX-65" target="BF1OgcIJ15lhp7sfsIDX-50" edge="1">
          <mxGeometry relative="1" as="geometry" />
        </mxCell>
        <mxCell id="BF1OgcIJ15lhp7sfsIDX-68" value="" style="edgeStyle=orthogonalEdgeStyle;rounded=0;orthogonalLoop=1;jettySize=auto;html=1;" parent="1" source="BF1OgcIJ15lhp7sfsIDX-65" target="BF1OgcIJ15lhp7sfsIDX-50" edge="1">
          <mxGeometry relative="1" as="geometry" />
        </mxCell>
        <mxCell id="BF1OgcIJ15lhp7sfsIDX-65" value="has" style="shape=rhombus;perimeter=rhombusPerimeter;whiteSpace=wrap;html=1;align=center;" parent="1" vertex="1">
          <mxGeometry x="-380" y="-610" width="88" height="40" as="geometry" />
        </mxCell>
        <mxCell id="BF1OgcIJ15lhp7sfsIDX-69" value="1" style="text;strokeColor=none;align=center;fillColor=none;html=1;verticalAlign=middle;whiteSpace=wrap;rounded=0;" parent="1" vertex="1">
          <mxGeometry x="-426" y="-617" width="58" height="30" as="geometry" />
        </mxCell>
        <mxCell id="BF1OgcIJ15lhp7sfsIDX-70" value="M" style="text;strokeColor=none;align=center;fillColor=none;html=1;verticalAlign=middle;whiteSpace=wrap;rounded=0;" parent="1" vertex="1">
          <mxGeometry x="-213" y="-497" width="58" height="30" as="geometry" />
        </mxCell>
        <mxCell id="BF1OgcIJ15lhp7sfsIDX-72" value="id" style="ellipse;whiteSpace=wrap;html=1;align=center;fontStyle=4;" parent="1" vertex="1">
          <mxGeometry x="-785" y="-410" width="98" height="40" as="geometry" />
        </mxCell>
        <mxCell id="BF1OgcIJ15lhp7sfsIDX-73" value="" style="endArrow=none;html=1;rounded=0;exitX=0.061;exitY=0.054;exitDx=0;exitDy=0;entryX=0.5;entryY=1;entryDx=0;entryDy=0;exitPerimeter=0;" parent="1" source="BF1OgcIJ15lhp7sfsIDX-124" target="BF1OgcIJ15lhp7sfsIDX-72" edge="1">
          <mxGeometry relative="1" as="geometry">
            <mxPoint x="-669" y="-288.9999999999998" as="sourcePoint" />
            <mxPoint x="-105" y="-261" as="targetPoint" />
            <Array as="points" />
          </mxGeometry>
        </mxCell>
        <mxCell id="BF1OgcIJ15lhp7sfsIDX-74" value="name" style="ellipse;whiteSpace=wrap;html=1;align=center;" parent="1" vertex="1">
          <mxGeometry x="-840" y="-249" width="98" height="40" as="geometry" />
        </mxCell>
        <mxCell id="BF1OgcIJ15lhp7sfsIDX-75" value="" style="endArrow=none;html=1;rounded=0;exitX=1;exitY=1;exitDx=0;exitDy=0;entryX=0;entryY=1;entryDx=0;entryDy=0;" parent="1" source="BF1OgcIJ15lhp7sfsIDX-74" target="BF1OgcIJ15lhp7sfsIDX-124" edge="1">
          <mxGeometry relative="1" as="geometry">
            <mxPoint x="-565" y="-261" as="sourcePoint" />
            <mxPoint x="-669" y="-268.9999999999998" as="targetPoint" />
          </mxGeometry>
        </mxCell>
        <mxCell id="BF1OgcIJ15lhp7sfsIDX-81" value="id" style="ellipse;whiteSpace=wrap;html=1;align=center;fontStyle=4;" parent="1" vertex="1">
          <mxGeometry x="-514" y="-990" width="98" height="40" as="geometry" />
        </mxCell>
        <mxCell id="BF1OgcIJ15lhp7sfsIDX-82" value="" style="endArrow=none;html=1;rounded=0;exitX=0.099;exitY=0.041;exitDx=0;exitDy=0;entryX=0.5;entryY=1;entryDx=0;entryDy=0;exitPerimeter=0;" parent="1" source="BF1OgcIJ15lhp7sfsIDX-138" target="BF1OgcIJ15lhp7sfsIDX-81" edge="1">
          <mxGeometry relative="1" as="geometry">
            <mxPoint x="-441" y="-870" as="sourcePoint" />
            <mxPoint x="89" y="-830" as="targetPoint" />
            <Array as="points" />
          </mxGeometry>
        </mxCell>
        <mxCell id="BF1OgcIJ15lhp7sfsIDX-83" value="&lt;code&gt;degree&lt;/code&gt;" style="ellipse;whiteSpace=wrap;html=1;align=center;" parent="1" vertex="1">
          <mxGeometry x="-606" y="-928" width="98" height="40" as="geometry" />
        </mxCell>
        <mxCell id="BF1OgcIJ15lhp7sfsIDX-84" value="" style="endArrow=none;html=1;rounded=0;exitX=1;exitY=1;exitDx=0;exitDy=0;entryX=0;entryY=0.5;entryDx=0;entryDy=0;" parent="1" source="BF1OgcIJ15lhp7sfsIDX-83" target="BF1OgcIJ15lhp7sfsIDX-138" edge="1">
          <mxGeometry relative="1" as="geometry">
            <mxPoint x="-371" y="-830" as="sourcePoint" />
            <mxPoint x="-441" y="-850" as="targetPoint" />
          </mxGeometry>
        </mxCell>
        <mxCell id="BF1OgcIJ15lhp7sfsIDX-85" value="&lt;code&gt;institution&lt;/code&gt;" style="ellipse;whiteSpace=wrap;html=1;align=center;" parent="1" vertex="1">
          <mxGeometry x="-671" y="-870" width="98" height="40" as="geometry" />
        </mxCell>
        <mxCell id="BF1OgcIJ15lhp7sfsIDX-86" value="" style="endArrow=none;html=1;rounded=0;exitX=1;exitY=0.5;exitDx=0;exitDy=0;entryX=0.018;entryY=0.874;entryDx=0;entryDy=0;entryPerimeter=0;" parent="1" source="BF1OgcIJ15lhp7sfsIDX-85" target="BF1OgcIJ15lhp7sfsIDX-138" edge="1">
          <mxGeometry relative="1" as="geometry">
            <mxPoint x="-416" y="-770" as="sourcePoint" />
            <mxPoint x="-441" y="-830" as="targetPoint" />
          </mxGeometry>
        </mxCell>
        <mxCell id="BF1OgcIJ15lhp7sfsIDX-87" value="&lt;code&gt;graduation_year&lt;/code&gt;" style="ellipse;whiteSpace=wrap;html=1;align=center;" parent="1" vertex="1">
          <mxGeometry x="-327" y="-990" width="127" height="67" as="geometry" />
        </mxCell>
        <mxCell id="BF1OgcIJ15lhp7sfsIDX-88" value="" style="endArrow=none;html=1;rounded=0;entryX=0.892;entryY=0.059;entryDx=0;entryDy=0;exitX=0.277;exitY=0.979;exitDx=0;exitDy=0;exitPerimeter=0;entryPerimeter=0;" parent="1" source="BF1OgcIJ15lhp7sfsIDX-87" target="BF1OgcIJ15lhp7sfsIDX-138" edge="1">
          <mxGeometry relative="1" as="geometry">
            <mxPoint x="-280" y="-920" as="sourcePoint" />
            <mxPoint x="-341" y="-870" as="targetPoint" />
          </mxGeometry>
        </mxCell>
        <mxCell id="BF1OgcIJ15lhp7sfsIDX-90" value="id" style="ellipse;whiteSpace=wrap;html=1;align=center;fontStyle=4;" parent="1" vertex="1">
          <mxGeometry x="-208" y="-830" width="98" height="40" as="geometry" />
        </mxCell>
        <mxCell id="BF1OgcIJ15lhp7sfsIDX-91" value="" style="endArrow=none;html=1;rounded=0;exitX=0.096;exitY=0.028;exitDx=0;exitDy=0;entryX=0.5;entryY=1;entryDx=0;entryDy=0;exitPerimeter=0;" parent="1" source="BF1OgcIJ15lhp7sfsIDX-141" target="BF1OgcIJ15lhp7sfsIDX-90" edge="1">
          <mxGeometry relative="1" as="geometry">
            <mxPoint x="-135" y="-710" as="sourcePoint" />
            <mxPoint x="395" y="-670" as="targetPoint" />
            <Array as="points" />
          </mxGeometry>
        </mxCell>
        <mxCell id="BF1OgcIJ15lhp7sfsIDX-92" value="&lt;code&gt;company&lt;/code&gt;" style="ellipse;whiteSpace=wrap;html=1;align=center;" parent="1" vertex="1">
          <mxGeometry x="-153" y="-622" width="98" height="40" as="geometry" />
        </mxCell>
        <mxCell id="BF1OgcIJ15lhp7sfsIDX-93" value="" style="endArrow=none;html=1;rounded=0;exitX=0.654;exitY=0.097;exitDx=0;exitDy=0;entryX=0.452;entryY=0.972;entryDx=0;entryDy=0;entryPerimeter=0;exitPerimeter=0;" parent="1" source="BF1OgcIJ15lhp7sfsIDX-92" target="BF1OgcIJ15lhp7sfsIDX-141" edge="1">
          <mxGeometry relative="1" as="geometry">
            <mxPoint x="-65" y="-670" as="sourcePoint" />
            <mxPoint x="-101.50000000000023" y="-670.3199999999997" as="targetPoint" />
          </mxGeometry>
        </mxCell>
        <mxCell id="BF1OgcIJ15lhp7sfsIDX-94" value="" style="endArrow=none;html=1;rounded=0;exitX=0.349;exitY=0.038;exitDx=0;exitDy=0;exitPerimeter=0;entryX=0.933;entryY=0.917;entryDx=0;entryDy=0;entryPerimeter=0;" parent="1" source="BF1OgcIJ15lhp7sfsIDX-97" target="BF1OgcIJ15lhp7sfsIDX-141" edge="1">
          <mxGeometry relative="1" as="geometry">
            <mxPoint x="-265" y="-690" as="sourcePoint" />
            <mxPoint x="-30" y="-680" as="targetPoint" />
          </mxGeometry>
        </mxCell>
        <mxCell id="BF1OgcIJ15lhp7sfsIDX-95" value="&lt;code&gt;position&lt;/code&gt;" style="ellipse;whiteSpace=wrap;html=1;align=center;" parent="1" vertex="1">
          <mxGeometry x="-21" y="-803" width="98" height="40" as="geometry" />
        </mxCell>
        <mxCell id="BF1OgcIJ15lhp7sfsIDX-96" value="" style="endArrow=none;html=1;rounded=0;entryX=0.92;entryY=0.2;entryDx=0;entryDy=0;exitX=0.277;exitY=0.979;exitDx=0;exitDy=0;exitPerimeter=0;entryPerimeter=0;" parent="1" source="BF1OgcIJ15lhp7sfsIDX-95" target="BF1OgcIJ15lhp7sfsIDX-141" edge="1">
          <mxGeometry relative="1" as="geometry">
            <mxPoint x="26" y="-760" as="sourcePoint" />
            <mxPoint x="-35" y="-710" as="targetPoint" />
          </mxGeometry>
        </mxCell>
        <mxCell id="BF1OgcIJ15lhp7sfsIDX-97" value="Date" style="ellipse;whiteSpace=wrap;html=1;align=center;" parent="1" vertex="1">
          <mxGeometry x="-10" y="-650" width="98" height="40" as="geometry" />
        </mxCell>
        <mxCell id="BF1OgcIJ15lhp7sfsIDX-98" value="&lt;code&gt;start_date&lt;/code&gt;" style="ellipse;whiteSpace=wrap;html=1;align=center;" parent="1" vertex="1">
          <mxGeometry x="-66" y="-578" width="72" height="30" as="geometry" />
        </mxCell>
        <mxCell id="BF1OgcIJ15lhp7sfsIDX-100" value="&lt;code&gt;end_date&lt;/code&gt;" style="ellipse;whiteSpace=wrap;html=1;align=center;" parent="1" vertex="1">
          <mxGeometry x="60" y="-580" width="72" height="30" as="geometry" />
        </mxCell>
        <mxCell id="BF1OgcIJ15lhp7sfsIDX-101" value="" style="endArrow=none;html=1;rounded=0;exitX=0.215;exitY=0.99;exitDx=0;exitDy=0;entryX=0.737;entryY=0.046;entryDx=0;entryDy=0;exitPerimeter=0;entryPerimeter=0;" parent="1" source="BF1OgcIJ15lhp7sfsIDX-97" target="BF1OgcIJ15lhp7sfsIDX-98" edge="1">
          <mxGeometry relative="1" as="geometry">
            <mxPoint x="35" y="-638" as="sourcePoint" />
            <mxPoint x="-25" y="-660" as="targetPoint" />
          </mxGeometry>
        </mxCell>
        <mxCell id="BF1OgcIJ15lhp7sfsIDX-102" value="" style="endArrow=none;html=1;rounded=0;exitX=0.768;exitY=0.871;exitDx=0;exitDy=0;entryX=0.323;entryY=0.067;entryDx=0;entryDy=0;exitPerimeter=0;entryPerimeter=0;" parent="1" source="BF1OgcIJ15lhp7sfsIDX-97" target="BF1OgcIJ15lhp7sfsIDX-100" edge="1">
          <mxGeometry relative="1" as="geometry">
            <mxPoint x="25" y="-598" as="sourcePoint" />
            <mxPoint x="-28" y="-572" as="targetPoint" />
          </mxGeometry>
        </mxCell>
        <mxCell id="BF1OgcIJ15lhp7sfsIDX-103" value="Date" style="ellipse;whiteSpace=wrap;html=1;align=center;" parent="1" vertex="1">
          <mxGeometry x="-132" y="-401" width="98" height="40" as="geometry" />
        </mxCell>
        <mxCell id="BF1OgcIJ15lhp7sfsIDX-104" value="" style="endArrow=none;html=1;rounded=0;exitX=0.301;exitY=0.099;exitDx=0;exitDy=0;entryX=1;entryY=1;entryDx=0;entryDy=0;exitPerimeter=0;" parent="1" source="BF1OgcIJ15lhp7sfsIDX-103" target="BF1OgcIJ15lhp7sfsIDX-60" edge="1">
          <mxGeometry relative="1" as="geometry">
            <mxPoint x="22" y="-600" as="sourcePoint" />
            <mxPoint x="-1" y="-567" as="targetPoint" />
          </mxGeometry>
        </mxCell>
        <mxCell id="BF1OgcIJ15lhp7sfsIDX-119" value="" style="edgeStyle=orthogonalEdgeStyle;rounded=0;orthogonalLoop=1;jettySize=auto;html=1;entryX=0.5;entryY=1;entryDx=0;entryDy=0;" parent="1" target="BF1OgcIJ15lhp7sfsIDX-50" edge="1">
          <mxGeometry relative="1" as="geometry">
            <mxPoint x="-469.9999999999999" y="-440.0000000000002" as="sourcePoint" />
            <mxPoint x="-471" y="-570.0000000000002" as="targetPoint" />
          </mxGeometry>
        </mxCell>
        <mxCell id="BF1OgcIJ15lhp7sfsIDX-123" style="edgeStyle=orthogonalEdgeStyle;rounded=0;orthogonalLoop=1;jettySize=auto;html=1;" parent="1" target="BF1OgcIJ15lhp7sfsIDX-124" edge="1">
          <mxGeometry relative="1" as="geometry">
            <mxPoint x="-610" y="-268" as="targetPoint" />
            <mxPoint x="-468.9999999999999" y="-399.0000000000002" as="sourcePoint" />
            <Array as="points">
              <mxPoint x="-469" y="-269" />
            </Array>
          </mxGeometry>
        </mxCell>
        <mxCell id="BF1OgcIJ15lhp7sfsIDX-116" value="has" style="shape=rhombus;perimeter=rhombusPerimeter;whiteSpace=wrap;html=1;align=center;" parent="1" vertex="1">
          <mxGeometry x="-518" y="-440" width="88" height="40" as="geometry" />
        </mxCell>
        <mxCell id="BF1OgcIJ15lhp7sfsIDX-118" value="M" style="text;strokeColor=none;align=center;fillColor=none;html=1;verticalAlign=middle;whiteSpace=wrap;rounded=0;" parent="1" vertex="1">
          <mxGeometry x="-610" y="-300" width="58" height="30" as="geometry" />
        </mxCell>
        <mxCell id="BF1OgcIJ15lhp7sfsIDX-124" value="Skill" style="shape=ext;margin=3;double=1;whiteSpace=wrap;html=1;align=center;" parent="1" vertex="1">
          <mxGeometry x="-710" y="-289" width="98" height="40" as="geometry" />
        </mxCell>
        <mxCell id="BF1OgcIJ15lhp7sfsIDX-127" style="edgeStyle=orthogonalEdgeStyle;rounded=0;orthogonalLoop=1;jettySize=auto;html=1;entryX=0.433;entryY=0.993;entryDx=0;entryDy=0;entryPerimeter=0;" parent="1" source="BF1OgcIJ15lhp7sfsIDX-126" target="BF1OgcIJ15lhp7sfsIDX-138" edge="1">
          <mxGeometry relative="1" as="geometry">
            <mxPoint x="-391" y="-830" as="targetPoint" />
          </mxGeometry>
        </mxCell>
        <mxCell id="BF1OgcIJ15lhp7sfsIDX-128" style="edgeStyle=orthogonalEdgeStyle;rounded=0;orthogonalLoop=1;jettySize=auto;html=1;entryX=0.5;entryY=0;entryDx=0;entryDy=0;exitX=0.5;exitY=1;exitDx=0;exitDy=0;" parent="1" source="BF1OgcIJ15lhp7sfsIDX-126" target="BF1OgcIJ15lhp7sfsIDX-50" edge="1">
          <mxGeometry relative="1" as="geometry">
            <mxPoint x="-470" y="-730.3043478260868" as="targetPoint" />
            <mxPoint x="-390" y="-670" as="sourcePoint" />
            <Array as="points">
              <mxPoint x="-391" y="-670" />
              <mxPoint x="-470" y="-670" />
            </Array>
          </mxGeometry>
        </mxCell>
        <mxCell id="BF1OgcIJ15lhp7sfsIDX-126" value="has" style="shape=rhombus;perimeter=rhombusPerimeter;whiteSpace=wrap;html=1;align=center;" parent="1" vertex="1">
          <mxGeometry x="-436" y="-750" width="88" height="40" as="geometry" />
        </mxCell>
        <mxCell id="BF1OgcIJ15lhp7sfsIDX-130" style="edgeStyle=orthogonalEdgeStyle;rounded=0;orthogonalLoop=1;jettySize=auto;html=1;entryX=0.015;entryY=0.398;entryDx=0;entryDy=0;entryPerimeter=0;" parent="1" source="BF1OgcIJ15lhp7sfsIDX-129" target="BF1OgcIJ15lhp7sfsIDX-141" edge="1">
          <mxGeometry relative="1" as="geometry">
            <mxPoint x="-135" y="-690" as="targetPoint" />
          </mxGeometry>
        </mxCell>
        <mxCell id="BF1OgcIJ15lhp7sfsIDX-131" style="edgeStyle=orthogonalEdgeStyle;rounded=0;orthogonalLoop=1;jettySize=auto;html=1;exitX=0.5;exitY=1;exitDx=0;exitDy=0;entryX=0.75;entryY=0;entryDx=0;entryDy=0;" parent="1" source="BF1OgcIJ15lhp7sfsIDX-129" target="BF1OgcIJ15lhp7sfsIDX-50" edge="1">
          <mxGeometry relative="1" as="geometry">
            <mxPoint x="-255.4347826086955" y="-620" as="targetPoint" />
            <Array as="points">
              <mxPoint x="-255" y="-630" />
              <mxPoint x="-445" y="-630" />
            </Array>
          </mxGeometry>
        </mxCell>
        <mxCell id="BF1OgcIJ15lhp7sfsIDX-129" value="has" style="shape=rhombus;perimeter=rhombusPerimeter;whiteSpace=wrap;html=1;align=center;" parent="1" vertex="1">
          <mxGeometry x="-300" y="-710" width="88" height="40" as="geometry" />
        </mxCell>
        <mxCell id="BF1OgcIJ15lhp7sfsIDX-133" value="1" style="text;strokeColor=none;align=center;fillColor=none;html=1;verticalAlign=middle;whiteSpace=wrap;rounded=0;" parent="1" vertex="1">
          <mxGeometry x="-450" y="-658" width="58" height="30" as="geometry" />
        </mxCell>
        <mxCell id="BF1OgcIJ15lhp7sfsIDX-134" value="1" style="text;strokeColor=none;align=center;fillColor=none;html=1;verticalAlign=middle;whiteSpace=wrap;rounded=0;" parent="1" vertex="1">
          <mxGeometry x="-510" y="-650" width="58" height="30" as="geometry" />
        </mxCell>
        <mxCell id="BF1OgcIJ15lhp7sfsIDX-135" value="M" style="text;strokeColor=none;align=center;fillColor=none;html=1;verticalAlign=middle;whiteSpace=wrap;rounded=0;" parent="1" vertex="1">
          <mxGeometry x="-183" y="-720" width="58" height="30" as="geometry" />
        </mxCell>
        <mxCell id="BF1OgcIJ15lhp7sfsIDX-136" value="M" style="text;strokeColor=none;align=center;fillColor=none;html=1;verticalAlign=middle;whiteSpace=wrap;rounded=0;" parent="1" vertex="1">
          <mxGeometry x="-436" y="-830" width="58" height="30" as="geometry" />
        </mxCell>
        <mxCell id="BF1OgcIJ15lhp7sfsIDX-138" value="&lt;code&gt;Education&lt;/code&gt;" style="shape=ext;margin=3;double=1;whiteSpace=wrap;html=1;align=center;" parent="1" vertex="1">
          <mxGeometry x="-434" y="-874" width="98" height="40" as="geometry" />
        </mxCell>
        <mxCell id="BF1OgcIJ15lhp7sfsIDX-141" value="&lt;code&gt;Experience&lt;/code&gt; " style="shape=ext;margin=3;double=1;whiteSpace=wrap;html=1;align=center;" parent="1" vertex="1">
          <mxGeometry x="-132" y="-706" width="98" height="40" as="geometry" />
        </mxCell>
        <mxCell id="BF1OgcIJ15lhp7sfsIDX-142" value="M" style="text;strokeColor=none;align=center;fillColor=none;html=1;verticalAlign=middle;whiteSpace=wrap;rounded=0;" parent="1" vertex="1">
          <mxGeometry x="-520" y="-565" width="58" height="30" as="geometry" />
        </mxCell>
        <mxCell id="cYbP5u3Fl-sR6IjgVxUq-7" value="User" style="whiteSpace=wrap;html=1;align=center;" vertex="1" parent="1">
          <mxGeometry x="-760" y="-780" width="98" height="40" as="geometry" />
        </mxCell>
        <mxCell id="cYbP5u3Fl-sR6IjgVxUq-8" value="id" style="ellipse;whiteSpace=wrap;html=1;align=center;fontStyle=4;" vertex="1" parent="1">
          <mxGeometry x="-833" y="-900" width="98" height="40" as="geometry" />
        </mxCell>
        <mxCell id="cYbP5u3Fl-sR6IjgVxUq-9" value="" style="endArrow=none;html=1;rounded=0;exitX=0;exitY=0;exitDx=0;exitDy=0;entryX=0.5;entryY=1;entryDx=0;entryDy=0;" edge="1" parent="1" source="cYbP5u3Fl-sR6IjgVxUq-7" target="cYbP5u3Fl-sR6IjgVxUq-8">
          <mxGeometry relative="1" as="geometry">
            <mxPoint x="-390" y="-740" as="sourcePoint" />
            <mxPoint x="-230" y="-740" as="targetPoint" />
            <Array as="points" />
          </mxGeometry>
        </mxCell>
        <mxCell id="cYbP5u3Fl-sR6IjgVxUq-10" value="password" style="ellipse;whiteSpace=wrap;html=1;align=center;" vertex="1" parent="1">
          <mxGeometry x="-925" y="-838" width="98" height="40" as="geometry" />
        </mxCell>
        <mxCell id="cYbP5u3Fl-sR6IjgVxUq-11" value="" style="endArrow=none;html=1;rounded=0;exitX=1;exitY=1;exitDx=0;exitDy=0;entryX=0;entryY=0.5;entryDx=0;entryDy=0;" edge="1" parent="1" source="cYbP5u3Fl-sR6IjgVxUq-10" target="cYbP5u3Fl-sR6IjgVxUq-7">
          <mxGeometry relative="1" as="geometry">
            <mxPoint x="-690" y="-740" as="sourcePoint" />
            <mxPoint x="-530" y="-740" as="targetPoint" />
          </mxGeometry>
        </mxCell>
        <mxCell id="cYbP5u3Fl-sR6IjgVxUq-12" value="email" style="ellipse;whiteSpace=wrap;html=1;align=center;" vertex="1" parent="1">
          <mxGeometry x="-990" y="-780" width="98" height="40" as="geometry" />
        </mxCell>
        <mxCell id="cYbP5u3Fl-sR6IjgVxUq-13" value="" style="endArrow=none;html=1;rounded=0;exitX=1;exitY=0.5;exitDx=0;exitDy=0;entryX=0;entryY=1;entryDx=0;entryDy=0;" edge="1" parent="1" source="cYbP5u3Fl-sR6IjgVxUq-12" target="cYbP5u3Fl-sR6IjgVxUq-7">
          <mxGeometry relative="1" as="geometry">
            <mxPoint x="-735" y="-680" as="sourcePoint" />
            <mxPoint x="-805" y="-720" as="targetPoint" />
          </mxGeometry>
        </mxCell>
      </root>
    </mxGraphModel>
  </diagram>
</mxfile>
